<svg width="44" height="35" viewBox="0 0 44 35" fill="none" xmlns="http://www.w3.org/2000/svg">
<path d="M43.3388 34.3H26.6921C25.0657 29.1667 24.2525 23.8467 24.2525 18.34C24.2525 12.74 25.7354 8.30666 28.7012 5.03999C31.7626 1.68 36.2591 0 42.1907 0V7.84C37.4072 7.84 35.0154 10.6867 35.0154 16.38V19.04H43.3388V34.3ZM19.0863 34.3H2.4396C0.8132 29.1667 0 23.8467 0 18.34C0 12.74 1.48289 8.30666 4.44868 5.03999C7.51014 1.68 12.0067 0 17.9382 0V7.84C13.1547 7.84 10.7629 10.6867 10.7629 16.38V19.04H19.0863V34.3Z" fill="#CBD5E1"/>
</svg>
