<?xml version="1.0" encoding="utf-8"?>
<!-- Generator: Adobe Illustrator 19.0.0, SVG Export Plug-In . SVG Version: 6.00 Build 0)  -->
<svg version="1.1" id="Layer_1" xmlns="http://www.w3.org/2000/svg" xmlns:xlink="http://www.w3.org/1999/xlink" x="0px" y="0px"
	 width="74.0862503px" height="74.0820313px" viewBox="0 0 74.0862503 74.0820313"
	 style="enable-background:new 0 0 74.0862503 74.0820313;" xml:space="preserve">
<style type="text/css">
	.st0{display:none;}
	.st1{display:inline;fill:#FFFFFF;}
	.st2{display:inline;fill:#253E93;}
	.st3{display:inline;fill:#E02228;}
	.st4{clip-path:url(#XMLID_145_);fill:#FFFFFF;}
	.st5{clip-path:url(#XMLID_146_);fill:#FFFFFF;}
	.st6{clip-path:url(#XMLID_147_);fill:#FFFFFF;}
	.st7{clip-path:url(#XMLID_148_);fill:#FFFFFF;}
	.st8{clip-path:url(#XMLID_149_);fill:#FFFFFF;}
	.st9{clip-path:url(#XMLID_150_);fill:#FFFFFF;}
	.st10{clip-path:url(#XMLID_151_);fill:#E51E25;}
	.st11{clip-path:url(#XMLID_152_);fill:#E51E25;}
	.st12{clip-path:url(#XMLID_153_);fill:#E51E25;}
	.st13{clip-path:url(#XMLID_154_);fill:#E51E25;}
	.st14{clip-path:url(#XMLID_155_);fill:#E51E25;}
	.st15{clip-path:url(#XMLID_156_);fill:#2D3081;}
	.st16{clip-path:url(#XMLID_157_);fill:#273B88;}
	.st17{clip-path:url(#XMLID_158_);fill:#FFFFFF;}
	.st18{clip-path:url(#XMLID_159_);fill:#FFFFFF;}
	.st19{fill:#FFFFFF;}
	.st20{clip-path:url(#XMLID_160_);fill:#FFFFFF;}
	.st21{clip-path:url(#XMLID_161_);fill:#FFFFFF;}
	.st22{clip-path:url(#XMLID_162_);fill:#FFFFFF;}
	.st23{clip-path:url(#XMLID_163_);fill:#FFFFFF;}
</style>
<g id="XMLID_28_" class="st0">
	<rect id="XMLID_30_" y="0.0520519" class="st1" width="74.0862503" height="74.0299759"/>
	<rect id="XMLID_31_" y="0.0212558" class="st2" width="24.6966572" height="74.0299759"/>
	<rect id="XMLID_29_" x="49.3935623" y="0.0243365" class="st3" width="24.6926861" height="74.0299759"/>
</g>
<g id="XMLID_32_">
	<g id="XMLID_141_">
		<defs>
			<path id="XMLID_142_" d="M14.461915,66.3919678c6.2529287,4.81604,14.0811415,7.6900635,22.5812111,7.6900635
				s16.3282814-2.8740234,22.5772324-7.6900635H14.461915z"/>
		</defs>
		<clipPath id="XMLID_145_">
			<use xlink:href="#XMLID_142_"  style="overflow:visible;"/>
		</clipPath>
		<rect id="XMLID_143_" x="1.6631137" y="53.5931664" class="st4" width="70.7642441" height="33.2916451"/>
	</g>
	<g id="XMLID_138_">
		<defs>
			<path id="XMLID_139_" d="M3.0309265,51.7164917c1.11537,2.5890274,2.5239313,5.0235138,4.1767359,7.266674h59.6709213
				c1.6528091-2.2431602,3.0573959-4.6776466,4.1767349-7.266674H3.0309265z"/>
		</defs>
		<clipPath id="XMLID_146_">
			<use xlink:href="#XMLID_139_"  style="overflow:visible;"/>
		</clipPath>
		<rect id="XMLID_140_" x="-9.7720995" y="38.9176903" class="st5" width="93.6264725" height="32.8682556"/>
	</g>
	<g id="XMLID_135_">
		<defs>
			<path id="XMLID_136_" d="M37.0431252,1.28234h4.4860764C40.055542,0.4681125,38.5615082,0,37.0431252,0V1.28234z"/>
		</defs>
		<clipPath id="XMLID_147_">
			<use xlink:href="#XMLID_136_"  style="overflow:visible;"/>
		</clipPath>
		<rect id="XMLID_137_" x="24.240099" y="-12.7988014" class="st6" width="30.0879059" height="26.8841667"/>
	</g>
	<g id="XMLID_132_">
		<defs>
			<path id="XMLID_133_" d="M0.0021094,37.0410156c0,2.4871597,0.2524428,4.9176674,0.7205553,7.2706528h72.6409225
				c0.4681091-2.3529854,0.7205505-4.783493,0.7205505-7.2706528H0.0021094z"/>
		</defs>
		<clipPath id="XMLID_148_">
			<use xlink:href="#XMLID_133_"  style="overflow:visible;"/>
		</clipPath>
		<rect id="XMLID_134_" x="-12.7966919" y="24.2379894" class="st7" width="99.6798859" height="32.8724785"/>
	</g>
	<g id="XMLID_129_">
		<defs>
			<path id="XMLID_130_" d="M37.0431252,22.3655396v7.266428h36.2961082
				c-0.5088577-2.5239315-1.2865601-4.9584141-2.2839127-7.266428H37.0431252z"/>
		</defs>
		<clipPath id="XMLID_149_">
			<use xlink:href="#XMLID_130_"  style="overflow:visible;"/>
		</clipPath>
		<rect id="XMLID_131_" x="24.240099" y="9.5625143" class="st8" width="61.8979378" height="32.8724785"/>
	</g>
	<g id="XMLID_126_">
		<defs>
			<path id="XMLID_127_" d="M37.0431252,7.689816v7.2706513h29.7338371
				c-2.0354462-2.743825-4.4495506-5.1862583-7.1566048-7.2706513H37.0431252z"/>
		</defs>
		<clipPath id="XMLID_150_">
			<use xlink:href="#XMLID_127_"  style="overflow:visible;"/>
		</clipPath>
		<rect id="XMLID_128_" x="24.240099" y="-5.1129613" class="st9" width="55.3396416" height="32.8682556"/>
	</g>
	<g id="XMLID_123_">
		<defs>
			<path id="XMLID_124_" d="M37.0431252,0.2807681V7.689816h22.5772324
				c-5.1335831-3.9568424-11.3293648-6.5908451-18.091156-7.4090481H37.0431252z"/>
		</defs>
		<clipPath id="XMLID_151_">
			<use xlink:href="#XMLID_124_"  style="overflow:visible;"/>
		</clipPath>
		<rect id="XMLID_125_" x="24.240099" y="-12.518034" class="st10" width="48.1830368" height="33.0108757"/>
	</g>
	<g id="XMLID_120_">
		<defs>
			<path id="XMLID_121_" d="M37.0431252,14.9604673v7.4050722h34.0121956
				c-1.1439438-2.6422005-2.5768509-5.1293602-4.2783585-7.4050722H37.0431252z"/>
		</defs>
		<clipPath id="XMLID_152_">
			<use xlink:href="#XMLID_121_"  style="overflow:visible;"/>
		</clipPath>
		<rect id="XMLID_122_" x="24.240099" y="2.1574421" class="st11" width="59.6140251" height="33.0108757"/>
	</g>
	<g id="XMLID_117_">
		<defs>
			<path id="XMLID_118_" d="M37.0431252,29.6319675v7.0915051H0.0103088c0,0.1058502-0.0081994,0.2116966-0.0081994,0.317543
				H74.084137c0-2.5361061-0.2564163-5.0153122-0.7449036-7.4090481H37.0431252z"/>
		</defs>
		<clipPath id="XMLID_153_">
			<use xlink:href="#XMLID_118_"  style="overflow:visible;"/>
		</clipPath>
		<rect id="XMLID_119_" x="-12.7966919" y="16.8331661" class="st12" width="99.6798859" height="33.0108757"/>
	</g>
	<g id="XMLID_114_">
		<defs>
			<path id="XMLID_115_" d="M0.7226647,44.3116684c0.5088612,2.572628,1.294515,5.0518379,2.3082619,7.4048233h68.0243912
				c1.0137482-2.3529854,1.7954254-4.8321953,2.3082657-7.4048233H0.7226647z"/>
		</defs>
		<clipPath id="XMLID_154_">
			<use xlink:href="#XMLID_115_"  style="overflow:visible;"/>
		</clipPath>
		<rect id="XMLID_116_" x="-12.0803604" y="31.5086422" class="st13" width="98.246727" height="33.0108757"/>
	</g>
	<g id="XMLID_111_">
		<defs>
			<path id="XMLID_112_" d="M7.2076626,58.9831657c2.0597944,2.800724,4.5064526,5.2921104,7.2542524,7.408802h45.1584435
				c2.7517776-2.1166916,5.1984367-4.608078,7.2582283-7.408802H7.2076626z"/>
		</defs>
		<clipPath id="XMLID_155_">
			<use xlink:href="#XMLID_112_"  style="overflow:visible;"/>
		</clipPath>
		<rect id="XMLID_113_" x="-5.5953631" y="46.1841164" class="st14" width="85.2730026" height="33.0108757"/>
	</g>
	<g id="XMLID_108_">
		<defs>
			<path id="XMLID_109_" d="M31.7142448,0.577935h1.225441l0.0529251-0.2156696
				C32.5692215,0.4477382,32.1376343,0.5006617,31.7142448,0.577935"/>
		</defs>
		<clipPath id="XMLID_156_">
			<use xlink:href="#XMLID_109_"  style="overflow:visible;"/>
		</clipPath>
		<rect id="XMLID_110_" x="18.9114685" y="-12.4407606" class="st15" width="26.8841667" height="25.8217201"/>
	</g>
	<g id="XMLID_91_">
		<defs>
			<path id="XMLID_92_" d="M7.8549199,32.1111755l-1.648829-1.2090435h2.043644l0.6311064-1.9417725l0.6348343,1.9417725h2.039669
				l-1.6488295,1.2090435l0.6268826,1.9377975l-1.6525564-1.1968689l-1.6528044,1.1968689L7.8549199,32.1111755z
				 M19.684948,32.1111755l-1.6488304-1.2090435h2.043644l0.6308594-1.9417725l0.6350822,1.9417725h2.039669l-1.6488304,1.2090435
				l0.6268845,1.9377975l-1.6528053-1.1968689l-1.6525574,1.1968689L19.684948,32.1111755z M31.5149746,32.1111755
				L29.870121,30.902132h2.039669l0.6308594-1.9417725l0.6350822,1.9417725h2.039669l-1.6488304,1.2090435l0.6268845,1.9377975
				l-1.6528053-1.1968689l-1.6528053,1.1968689L31.5149746,32.1111755z M13.7739096,27.0183392l-1.6485815-1.2008419h2.0394201
				l0.6308584-1.9417725l0.6311073,1.9417725h2.043644l-1.6488295,1.2008419l0.6311064,1.9420204l-1.6570282-1.196867
				l-1.6525564,1.196867L13.7739096,27.0183392z M25.6039371,27.0225639l-1.6488304-1.2050667h2.039669l0.6350822-1.9417725
				l0.6308594,1.9417725h2.039669l-1.6488304,1.2050667l0.6311073,1.9377956l-1.6528053-1.196867l-1.6570282,1.196867
				L25.6039371,27.0225639z M7.8549199,21.9339523l-1.648829-1.2008419l2.043644-0.0042248l0.6311064-1.9377975l0.6348343,1.9377975
				l2.039669,0.0042248l-1.6488295,1.2008419l0.6268826,1.9417725l-1.6525564-1.1928921l-1.6528044,1.1928921L7.8549199,21.9339523z
				 M19.684948,21.9339523l-1.6488304-1.2008419l2.043644-0.0042248l0.6308594-1.9377975l0.6350822,1.9377975l2.039669,0.0042248
				l-1.6488304,1.2008419l0.6268845,1.9417725l-1.6528053-1.1928921l-1.6525574,1.1928921L19.684948,21.9339523z
				 M31.5149746,21.9339523l-1.6448536-1.2008419l2.039669-0.0042248l0.6308594-1.9377975l0.6350822,1.9377975l2.039669,0.0042248
				l-1.6488304,1.2008419l0.6268845,1.9417725l-1.6528053-1.1928921l-1.6528053,1.1928921L31.5149746,21.9339523z
				 M13.7739096,16.8493156l-1.6485815-1.2008419l2.0394201-0.0039759l0.6308584-1.9377966l0.6311073,1.9377966l2.043644,0.0039759
				l-1.6488295,1.2008419l0.6311064,1.9417725l-1.6570282-1.196867l-1.6525564,1.196867L13.7739096,16.8493156z
				 M25.6039371,16.8493156l-1.6488304-1.2008419l2.039669-0.0039759l0.6350822-1.9377966l0.6308594,1.9377966l2.039669,0.0039759
				l-1.6488304,1.2008419l0.6311073,1.9417725l-1.6528053-1.196867l-1.6570282,1.196867L25.6039371,16.8493156z
				 M19.684948,11.7649288l-1.6488304-1.2010908l2.043644-0.0039759l0.6308594-1.9377966l0.6350822,1.9377966l2.039669,0.0039759
				l-1.6488304,1.2010908l0.6268845,1.9417725l-1.6528053-1.196867l-1.6525574,1.196867L19.684948,11.7649288z
				 M31.5149746,11.7649288L29.870121,10.563838l2.039669-0.0039759l0.6308594-1.9377966l0.6350822,1.9377966l2.039669,0.0039759
				l-1.6488304,1.2010908l0.6268845,1.9417725l-1.6528053-1.196867l-1.6528053,1.196867L31.5149746,11.7649288z
				 M25.6039371,7.3071761l-1.6488304-1.2050667l2.039669-0.0039754l0.6350822-1.9377966l0.6308594,1.9377966l2.039669,0.0039754
				L27.651556,7.3071761l0.6311073,1.9377971L26.629858,8.0520811l-1.6570282,1.1928921L25.6039371,7.3071761z
				 M33.1188316,0.2074702l0.0569,0.1791449l2.039669,0.0042239l-1.6488304,1.2008427l0.6268845,1.9417723L32.5406494,2.336587
				l-1.6528053,1.1968672l0.6271305-1.9417723l-1.3027134-0.9526238c-2.7845745,0.521036-5.4633007,1.3516624-7.9912071,2.4548573
				l0.1423721,0.4395387l-0.4273643-0.3093419c-1.8359261,0.822427-3.590601,1.7830017-5.2555809,2.8779972h0.7898769
				l-1.6488295,1.2050667l0.6268835,1.9377971l-1.6528053-1.1928921l-1.6525564,1.1928921l0.2238693-0.6880064
				c-0.7655277,0.6390581-1.5022335,1.310914-2.2145891,2.0068712h0.4030142l-1.4045858,1.0259218
				c-0.0732985,0.0732975-0.1505718,0.1505709-0.2238693,0.2320681l0.6065083,1.8848734L9.1412354,12.692955
				c-3.3013854,3.7776966-5.8456912,8.2314739-7.4008484,13.1245422h0.5903585l0.6350825-1.9417725l0.6308587,1.9417725h2.0436437
				l-1.6488292,1.2008419l0.6268833,1.9420204l-1.6525564-1.196867l-1.6528047,1.196867l0.6308585-1.9420204l-0.464137-0.3336906
				c-0.9280256,3.1915627-1.4411106,6.5540714-1.4694359,10.0346012h37.0328178v-7.0872822v-7.266428v-7.4050722V7.689816V0.2807681
				V0C35.7160606,0,34.4051476,0.0732979,33.1188316,0.2074702"/>
		</defs>
		<clipPath id="XMLID_157_">
			<use xlink:href="#XMLID_92_"  style="overflow:visible;"/>
		</clipPath>
		<rect id="XMLID_107_" x="-12.7887411" y="-12.7988014" class="st16" width="62.6346436" height="62.3213272"/>
	</g>
	<g id="XMLID_88_">
		<defs>
			<path id="XMLID_89_" d="M31.9179897,0.3622654L31.90979,0.3866152h-0.1955452
				c-0.5046368,0.0732979-1.0052986,0.1629946-1.5019836,0.2524429l1.3027134,0.9526238l-0.6271305,1.9417723l1.6528053-1.1968672
				l1.6528053,1.1968672l-0.6268845-1.9417723l1.6488304-1.2008427l-2.039669-0.0042239l-0.0569-0.1791449
				C32.7158165,0.2524428,32.3167801,0.3093418,31.9179897,0.3622654"/>
		</defs>
		<clipPath id="XMLID_158_">
			<use xlink:href="#XMLID_89_"  style="overflow:visible;"/>
		</clipPath>
		<rect id="XMLID_90_" x="17.409235" y="-12.5913315" class="st17" width="30.6049652" height="28.9278107"/>
	</g>
	<g id="XMLID_85_">
		<defs>
			<path id="XMLID_86_" d="M21.9360619,3.4683557l1.2783642,0.9078999l-0.4194126-1.28234
				C22.5060463,3.2159128,22.2210541,3.3461099,21.9360619,3.4683557"/>
		</defs>
		<clipPath id="XMLID_159_">
			<use xlink:href="#XMLID_86_"  style="overflow:visible;"/>
		</clipPath>
		<rect id="XMLID_87_" x="9.1330357" y="-9.7051344" class="st18" width="26.8841667" height="26.8841667"/>
	</g>
	<polygon id="XMLID_84_" class="st19" points="31.9085464,10.5586205 29.8688793,10.5628443 31.5177078,11.7636871 
		30.8908253,13.7054586 32.5433807,12.5085917 34.1961861,13.7054586 33.5693016,11.7636871 35.218132,10.5628443 
		33.1744881,10.5586205 32.5433807,8.6210718 	"/>
	<g id="XMLID_81_">
		<defs>
			<path id="XMLID_82_" d="M11.1523304,10.563838c-0.3418913,0.4151888-0.6718559,0.846777-1.0015717,1.2783642l1.4045858-1.2783642
				H11.1523304z"/>
		</defs>
		<clipPath id="XMLID_160_">
			<use xlink:href="#XMLID_82_"  style="overflow:visible;"/>
		</clipPath>
		<rect id="XMLID_83_" x="-2.6520188" y="-2.2389393" class="st20" width="27.0103893" height="26.8841667"/>
	</g>
	<g id="XMLID_78_">
		<defs>
			<path id="XMLID_79_" d="M9.1412354,12.6971788l1.3921623,1.0095224l-0.6065083-1.8848734
				C9.6582956,12.1068201,9.3976536,12.3997631,9.1412354,12.6971788"/>
		</defs>
		<clipPath id="XMLID_161_">
			<use xlink:href="#XMLID_79_"  style="overflow:visible;"/>
		</clipPath>
		<rect id="XMLID_80_" x="-3.6617901" y="-0.9769736" class="st21" width="26.9939899" height="27.4867001"/>
	</g>
	<polygon id="XMLID_77_" class="st19" points="20.078022,10.5586205 18.0383549,10.5628443 19.6871834,11.7636871 
		19.0603008,13.7054586 20.7128563,12.5085917 22.3656616,13.7054586 21.7387791,11.7636871 23.3876076,10.5628443 
		21.3439636,10.5586205 20.7128563,8.6210718 	"/>
	<polygon id="XMLID_76_" class="st19" points="31.9085464,20.7293835 29.8688793,20.7336063 31.5177078,21.9344501 
		30.8908253,23.8762207 32.5433807,22.6835785 34.1961861,23.8762207 33.5693016,21.9344501 35.218132,20.7336063 
		33.1744881,20.7293835 32.5433807,18.7918339 	"/>
	<polygon id="XMLID_75_" class="st19" points="8.2477465,20.7293835 6.2080784,20.7336063 7.8569078,21.9344501 
		7.2300248,23.8762207 8.8825808,22.6835785 10.5353861,23.8762207 9.9085026,21.9344501 11.557332,20.7336063 
		9.5136881,20.7293835 8.8825808,18.7918339 	"/>
	<polygon id="XMLID_74_" class="st19" points="20.078022,20.7293835 18.0383549,20.7336063 19.6871834,21.9344501 
		19.0603008,23.8762207 20.7128563,22.6835785 22.3656616,23.8762207 21.7387791,21.9344501 23.3876076,20.7336063 
		21.3439636,20.7293835 20.7128563,18.7918339 	"/>
	<polygon id="XMLID_73_" class="st19" points="31.9085464,30.9036236 29.8688793,30.9036236 31.5177078,32.1086884 
		30.8908253,34.0464859 32.5433807,32.8535957 34.1961861,34.0464859 33.5693016,32.1086884 35.218132,30.9036236 
		33.1744881,30.9036236 32.5433807,28.9618511 	"/>
	<polygon id="XMLID_72_" class="st19" points="8.2477465,30.9036236 6.2080784,30.9036236 7.8569078,32.1086884 
		7.2300248,34.0464859 8.8825808,32.8535957 10.5353861,34.0464859 9.9085026,32.1086884 11.557332,30.9036236 
		9.5136881,30.9036236 8.8825808,28.9618511 	"/>
	<polygon id="XMLID_71_" class="st19" points="20.078022,30.9036236 18.0383549,30.9036236 19.6871834,32.1086884 
		19.0603008,34.0464859 20.7128563,32.8535957 22.3656616,34.0464859 21.7387791,32.1086884 23.3876076,30.9036236 
		21.3439636,30.9036236 20.7128563,28.9618511 	"/>
	<polygon id="XMLID_70_" class="st19" points="14.1647482,15.644001 12.1250801,15.6482248 13.7739096,16.8490677 
		13.1428022,18.7908401 14.7956066,17.5939732 16.4523869,18.7908401 15.8215284,16.8490677 17.4701099,15.6482248 
		15.4267139,15.644001 14.7956066,13.7064533 	"/>
	<polygon id="XMLID_69_" class="st19" points="25.9950237,15.644001 23.9553566,15.6482248 25.6041851,16.8490677 
		24.9730778,18.7908401 26.629858,17.5939732 28.2826633,18.7908401 27.651804,16.8490677 29.3003864,15.6482248 
		27.2609653,15.644001 26.629858,13.7064533 	"/>
	<polygon id="XMLID_68_" class="st19" points="14.1647482,25.818243 12.1250801,25.818243 13.7739096,27.0193329 
		13.1428022,28.9611053 14.7956066,27.7642384 16.4523869,28.9611053 15.8215284,27.0193329 17.4701099,25.818243 
		15.4267139,25.818243 14.7956066,23.8764706 	"/>
	<g id="XMLID_65_">
		<defs>
			<path id="XMLID_66_" d="M2.3307455,25.8174973H1.740387c-0.0894482,0.2849922-0.1751695,0.5781841-0.2606422,0.8671513
				l0.464137,0.3379154l-0.6308585,1.9377956l1.6528047-1.196867l1.6525564,1.196867l-0.6268833-1.9377956l1.6488292-1.2050667
				H3.5966866l-0.6308587-1.9417725L2.3307455,25.8174973z"/>
		</defs>
		<clipPath id="XMLID_162_">
			<use xlink:href="#XMLID_66_"  style="overflow:visible;"/>
		</clipPath>
		<rect id="XMLID_67_" x="-11.4860268" y="11.0769234" class="st22" width="29.9291344" height="30.6904392"/>
	</g>
	<polygon id="XMLID_64_" class="st19" points="25.9950237,25.818243 23.9553566,25.818243 25.6041851,27.0193329 
		24.9730778,28.9611053 26.629858,27.7642384 28.2826633,28.9611053 27.651804,27.0193329 29.3003864,25.818243 
		27.2609653,25.818243 26.629858,23.8764706 	"/>
	<g id="XMLID_61_">
		<defs>
			<path id="XMLID_62_" d="M16.680481,6.1021094c-1.1479197,0.7613044-2.2550907,1.5755315-3.3135614,2.4548573
				l-0.2238693,0.6880064l1.6525564-1.1928921l1.6570282,1.1928921l-0.6311064-1.9377971l1.6488295-1.2050667H16.680481z"/>
		</defs>
		<clipPath id="XMLID_163_">
			<use xlink:href="#XMLID_62_"  style="overflow:visible;"/>
		</clipPath>
		<rect id="XMLID_63_" x="0.3440005" y="-6.696692" class="st23" width="29.9291344" height="28.744442"/>
	</g>
	<polygon id="XMLID_33_" class="st19" points="25.9950237,6.0998735 23.9553566,6.1040974 25.6041851,7.3049402 
		24.9730778,9.2467127 26.629858,8.0540695 28.2826633,9.2467127 27.651804,7.3049402 29.3003864,6.1040974 27.2609653,6.0998735 
		26.629858,4.1623249 	"/>
</g>
</svg>
