<svg width="19" height="18" viewBox="0 0 19 18" fill="none" xmlns="http://www.w3.org/2000/svg">
<g clip-path="url(#clip0_225_143)" filter="url(#filter0_i_225_143)">
<path d="M18.2017 3.82775C17.5885 4.09948 16.9297 4.28309 16.2371 4.36608C16.9517 3.93849 17.4863 3.26553 17.7412 2.47275C17.0699 2.87153 16.3351 3.15223 15.5688 3.30264C15.0535 2.75246 14.371 2.38779 13.6272 2.26525C12.8835 2.14272 12.1201 2.26916 11.4555 2.62496C10.791 2.98075 10.2625 3.546 9.9521 4.23293C9.64171 4.91986 9.56681 5.69005 9.739 6.42392C8.37863 6.35561 7.04782 6.00203 5.83294 5.38612C4.61806 4.7702 3.54627 3.90572 2.68712 2.84877C2.39335 3.35552 2.22443 3.94305 2.22443 4.56878C2.22411 5.13207 2.36282 5.68674 2.62827 6.18357C2.89373 6.68039 3.27771 7.10402 3.74615 7.41685C3.20288 7.39957 2.6716 7.25277 2.19652 6.98869V7.03275C2.19647 7.82279 2.46975 8.58853 2.97 9.20002C3.47025 9.81151 4.16665 10.2311 4.94105 10.3876C4.43708 10.524 3.9087 10.5441 3.39583 10.4463C3.61432 11.1261 4.03991 11.7206 4.61303 12.1465C5.18615 12.5723 5.8781 12.8084 6.59202 12.8214C5.38011 13.7728 3.8834 14.2889 2.34267 14.2866C2.06975 14.2867 1.79706 14.2707 1.526 14.2389C3.08993 15.2444 4.91045 15.7781 6.76975 15.776C13.0637 15.776 16.5045 10.5631 16.5045 6.04202C16.5045 5.89514 16.5008 5.74678 16.4942 5.5999C17.1634 5.1159 17.7412 4.51656 18.2002 3.82995L18.2017 3.82775Z" fill="#485B7C"/>
</g>
<defs>
<filter id="filter0_i_225_143" x="0.837769" y="0.202148" width="17.626" height="18.2853" filterUnits="userSpaceOnUse" color-interpolation-filters="sRGB">
<feFlood flood-opacity="0" result="BackgroundImageFix"/>
<feBlend mode="normal" in="SourceGraphic" in2="BackgroundImageFix" result="shape"/>
<feColorMatrix in="SourceAlpha" type="matrix" values="0 0 0 0 0 0 0 0 0 0 0 0 0 0 0 0 0 0 127 0" result="hardAlpha"/>
<feOffset dy="0.659327"/>
<feGaussianBlur stdDeviation="1.23624"/>
<feComposite in2="hardAlpha" operator="arithmetic" k2="-1" k3="1"/>
<feColorMatrix type="matrix" values="0 0 0 0 0 0 0 0 0 0 0 0 0 0 0 0 0 0 0.2 0"/>
<feBlend mode="normal" in2="shape" result="effect1_innerShadow_225_143"/>
</filter>
<clipPath id="clip0_225_143">
<rect width="17.626" height="17.626" fill="white" transform="translate(0.837769 0.202148)"/>
</clipPath>
</defs>
</svg>
