<svg width="18" height="19" viewBox="0 0 18 19" fill="none" xmlns="http://www.w3.org/2000/svg">
<g clip-path="url(#clip0_225_295)" filter="url(#filter0_i_225_295)">
<path fill-rule="evenodd" clip-rule="evenodd" d="M1.00848 2.93775C1.00848 2.57975 1.1507 2.23641 1.40385 1.98326C1.657 1.73011 2.00034 1.58789 2.35835 1.58789H15.8144C15.9918 1.5876 16.1675 1.62231 16.3315 1.69003C16.4955 1.75774 16.6445 1.85714 16.77 1.98252C16.8955 2.10791 16.9951 2.25682 17.063 2.42073C17.1309 2.58464 17.1658 2.76034 17.1657 2.93775V16.3938C17.1659 16.5712 17.1311 16.747 17.0633 16.911C16.9955 17.0749 16.896 17.224 16.7706 17.3495C16.6451 17.475 16.4962 17.5745 16.3322 17.6424C16.1683 17.7103 15.9925 17.7452 15.8151 17.7451H2.35835C2.18102 17.7451 2.00543 17.7102 1.84161 17.6423C1.67779 17.5744 1.52895 17.4749 1.40359 17.3495C1.27823 17.224 1.17882 17.0752 1.11103 16.9113C1.04323 16.7474 1.00839 16.5718 1.00848 16.3945V2.93775ZM7.4038 7.74819H9.59163V8.84688C9.90743 8.21528 10.7153 7.64684 11.9293 7.64684C14.2567 7.64684 14.8082 8.9049 14.8082 11.2132V15.489H12.4529V11.739C12.4529 10.4244 12.1371 9.68265 11.3351 9.68265C10.2225 9.68265 9.75981 10.4824 9.75981 11.739V15.489H7.4038V7.74819ZM3.3645 15.3883H5.72051V7.64684H3.3645V15.3876V15.3883ZM6.05761 5.12191C6.06205 5.32364 6.02616 5.52422 5.95203 5.71188C5.8779 5.89955 5.76704 6.07051 5.62594 6.21475C5.48485 6.35899 5.31636 6.47359 5.13037 6.55183C4.94439 6.63007 4.74465 6.67037 4.54287 6.67037C4.3411 6.67037 4.14136 6.63007 3.95537 6.55183C3.76938 6.47359 3.6009 6.35899 3.4598 6.21475C3.31871 6.07051 3.20784 5.89955 3.13372 5.71188C3.05959 5.52422 3.02369 5.32364 3.02813 5.12191C3.03685 4.72596 3.20027 4.34915 3.48339 4.0722C3.76651 3.79525 4.14682 3.64016 4.54287 3.64016C4.93893 3.64016 5.31924 3.79525 5.60236 4.0722C5.88547 4.34915 6.04889 4.72596 6.05761 5.12191Z" fill="#485B7C"/>
</g>
<defs>
<filter id="filter0_i_225_295" x="0.274048" y="0.853516" width="17.626" height="22.047" filterUnits="userSpaceOnUse" color-interpolation-filters="sRGB">
<feFlood flood-opacity="0" result="BackgroundImageFix"/>
<feBlend mode="normal" in="SourceGraphic" in2="BackgroundImageFix" result="shape"/>
<feColorMatrix in="SourceAlpha" type="matrix" values="0 0 0 0 0 0 0 0 0 0 0 0 0 0 0 0 0 0 127 0" result="hardAlpha"/>
<feOffset dy="4.42105"/>
<feGaussianBlur stdDeviation="8.28947"/>
<feComposite in2="hardAlpha" operator="arithmetic" k2="-1" k3="1"/>
<feColorMatrix type="matrix" values="0 0 0 0 0 0 0 0 0 0 0 0 0 0 0 0 0 0 0.2 0"/>
<feBlend mode="normal" in2="shape" result="effect1_innerShadow_225_295"/>
</filter>
<clipPath id="clip0_225_295">
<rect width="17.626" height="17.626" fill="white" transform="translate(0.274048 0.853516)"/>
</clipPath>
</defs>
</svg>
